Coordinates
version=1
nRows=21
nColumns=22
inDegrees=yes

Units are S.I. units (second, meters, Newtons, ...)
If the header above contains a line with 'inDegrees', this indicates whether rotational values are in degrees (yes) or radians (no).

endheader
time	pelvis_tilt	pelvis_list	pelvis_rotation	pelvis_tx	pelvis_ty	pelvis_tz	hip_flexion_r	hip_adduction_r	hip_rotation_r	knee_angle_r	ankle_angle_r	subtalar_angle_r	hip_flexion_l	hip_adduction_l	hip_rotation_l	knee_angle_l	ankle_angle_l	subtalar_angle_l	lumbar_extension	lumbar_bending	lumbar_rotation
      2.56000000	      7.62249731	     -0.38712969	    -31.23841142	     -0.05352657	      0.90159136	     -0.11378434	     18.85608882	     -6.47984290	    -19.47714772	    -38.80993640	     17.01209056	    -15.31087799	     -7.35193470	      0.73282130	    -12.73468250	    -17.98027476	     17.04733783	      1.77514491	    -16.29191982	     -2.81072225	     -1.97452117
      2.57000000	      7.67970693	     -0.90050650	    -31.47716648	     -0.04643284	      0.90105204	     -0.10873368	     18.26880583	     -5.99579672	    -21.26828682	    -35.75717099	     16.67704588	    -13.94185807	     -8.38677340	      0.33838689	    -12.89293918	    -17.92041169	     17.53956480	      1.83980396	    -16.59476812	     -2.46291044	     -2.00546450
      2.58000000	      7.67739560	     -1.38549870	    -31.65357882	     -0.03930418	      0.90039454	     -0.10371811	     17.71483485	     -5.48429671	    -23.07527393	    -32.72551208	     16.17353651	    -12.55927437	     -9.33412262	     -0.08486218	    -13.13201991	    -17.89730606	     18.02118134	      1.94227801	    -16.83171096	     -2.07671596	     -2.13463845
      2.59000000	      7.69202972	     -1.95271445	    -31.77597331	     -0.03201175	      0.89969466	     -0.09857981	     17.02728080	     -4.86693139	    -25.15326560	    -29.67610903	     15.90090333	    -11.33617269	    -10.33814362	     -0.59417341	    -13.33681232	    -17.90416180	     18.56502562	      2.03462322	    -17.11371511	     -1.63304259	     -2.23462123
      2.60000000	      7.74009323	     -2.48609476	    -31.93894443	     -0.02492256	      0.89891146	     -0.09334483	     16.35104740	     -4.19025227	    -27.03113858	    -26.66870639	     15.69356548	     -9.74897582	    -11.38213434	     -1.04875032	    -13.55892705	    -17.86948744	     18.98413225	      2.23769337	    -17.39455731	     -1.24363980	     -2.33079437
      2.61000000	      7.73055157	     -2.91949132	    -31.91641367	     -0.01806286	      0.89787387	     -0.08799274	     15.75658641	     -3.49037602	    -28.97022366	    -23.72609218	     15.34730883	     -8.12524507	    -12.19135964	     -1.54225884	    -13.61206042	    -18.01745035	     19.40563751	      2.49284518	    -17.62051259	     -0.92493521	     -2.56060807
      2.62000000	      7.59746286	     -3.27077288	    -32.07893404	     -0.01132244	      0.89649146	     -0.08242264	     15.50600056	     -2.75388009	    -30.53649397	    -21.14497827	     15.51009099	     -7.71984387	    -12.84778674	     -2.01203721	    -13.91484750	    -18.20321565	     19.84138814	      2.67371040	    -17.68322314	     -0.65225731	     -2.59753405
      2.63000000	      7.53126916	     -3.60187562	    -32.20740414	     -0.00452049	      0.89513698	     -0.07685150	     15.24354453	     -2.05600908	    -31.86605326	    -18.77489662	     15.48858740	     -6.45774301	    -13.59028611	     -2.41878354	    -14.21779873	    -18.32913873	     20.17713777	      2.98947202	    -17.75440105	     -0.38019078	     -2.73500150
      2.64000000	      7.48938830	     -3.79600904	    -32.36570987	      0.00249674	      0.89359748	     -0.07134720	     15.15282844	     -1.54983926	    -33.05104034	    -16.81312376	     15.18055141	     -4.46670098	    -14.27260116	     -2.66220185	    -14.49313399	    -18.46689236	     20.48367717	      3.16154169	    -17.78142132	     -0.25191243	     -2.80278978
      2.65000000	      7.35209381	     -3.93925503	    -32.46778343	      0.00917778	      0.89189258	     -0.06555117	     15.26827485	     -1.05486760	    -33.90209313	    -15.24207020	     15.20665973	     -3.70382501	    -14.77440091	     -2.95138419	    -14.63452514	    -18.67508710	     20.75560239	      3.38091106	    -17.69887184	     -0.11717427	     -2.97632676
      2.66000000	      7.23491580	     -4.01505465	    -32.59092706	      0.01587833	      0.89015625	     -0.05977366	     15.47459298	     -0.68396702	    -34.57760503	    -14.01050147	     15.29109883	     -3.02002315	    -15.19611299	     -3.18767625	    -14.88176436	    -19.00099857	     20.91902433	      3.64900502	    -17.58707253	     -0.05309456	     -3.10265950
      2.67000000	      7.07456644	     -4.01249375	    -32.69454631	      0.02264125	      0.88835185	     -0.05403702	     15.81083016	     -0.43225463	    -34.93629117	    -13.12537375	     15.51787795	     -2.75584861	    -15.50753238	     -3.38788683	    -15.14998362	    -19.39590501	     21.05069701	      3.68238954	    -17.40219129	      0.00796152	     -3.27578351
      2.68000000	      6.93738758	     -4.00472674	    -32.86358445	      0.02929900	      0.88671820	     -0.04802079	     16.10789734	     -0.16547944	    -34.67329328	    -12.41609743	     15.66706116	     -2.55796937	    -15.83571267	     -3.53905067	    -15.21429046	    -19.78278109	     20.99777320	      3.86905961	    -17.19730350	      0.03059969	     -3.37137135
      2.69000000	      6.77964000	     -3.99449931	    -33.05399239	      0.03598538	      0.88509758	     -0.04212042	     16.37849157	      0.06908059	    -34.27184601	    -11.88058006	     15.78482698	     -2.47676921	    -16.21076439	     -3.63992375	    -15.07836911	    -20.02962055	     20.94785546	      3.94227625	    -17.00389703	      0.08494767	     -3.48264524
      2.70000000	      6.54233663	     -3.94291572	    -33.15435498	      0.04264121	      0.88346238	     -0.03606380	     16.71570661	      0.27086571	    -33.84514982	    -11.60481104	     15.72223266	     -2.18571385	    -16.27367036	     -3.85530717	    -14.89051933	    -20.68198396	     20.78792967	      4.07168995	    -16.71848524	      0.17502822	     -3.69359716
      2.71000000	      6.22017738	     -3.98083817	    -33.30846156	      0.04946718	      0.88201373	     -0.02957575	     16.98089813	      0.60752058	    -33.62368242	    -11.45313738	     15.61294677	     -2.03514945	    -16.40565553	     -4.17183030	    -14.65960813	    -21.20000923	     20.67916005	      4.10974878	    -16.33320520	      0.40563435	     -3.78518467
      2.72000000	      5.94030779	     -4.02467122	    -33.44852959	      0.05650469	      0.88062815	     -0.02298118	     17.14996312	      0.87128963	    -33.27517310	    -11.58383271	     15.49392536	     -2.11946557	    -16.54911280	     -4.47435006	    -14.35846367	    -21.81043534	     20.40769996	      4.19192330	    -15.98938556	      0.68347541	     -4.02590051
      2.73000000	      5.69896299	     -4.07938464	    -33.48740243	      0.06375329	      0.87939194	     -0.01607997	     17.20997435	      1.06754155	    -33.20232385	    -11.91872893	     15.36406464	     -2.87702508	    -16.59360254	     -4.82333112	    -13.90535587	    -22.67849665	     19.87372272	      4.38905422	    -15.64599599	      0.91162158	     -4.28111241
      2.74000000	      5.54317888	     -4.18078507	    -33.60730440	      0.07121836	      0.87840870	     -0.00876345	     17.10618827	      1.28531942	    -33.00284140	    -12.44023862	     15.16384710	     -3.03695778	    -16.88041686	     -5.12802747	    -13.51151946	    -23.32120559	     19.07195710	      4.81515096	    -15.34292953	      1.14562878	     -4.57229168
      2.75000000	      5.38801796	     -4.24681915	    -33.62824493	      0.07871653	      0.87748009	     -0.00152105	     17.05598125	      1.35706920	    -33.06060341	    -13.33306772	     15.02492625	     -4.01551747	    -17.02399318	     -5.42339510	    -12.82450341	    -24.14276911	     18.38388174	      5.29139335	    -15.06338620	      1.38913771	     -4.95926604
      2.76000000	      5.23539236	     -4.27931503	    -33.62150992	      0.08643184	      0.87663589	      0.00585257	     16.96077884	      1.36739424	    -33.11851019	    -14.33063322	     14.97369533	     -5.99746417	    -17.08835350	     -5.72351308	    -12.17677014	    -25.08406058	     17.55510567	      5.41173252	    -14.72110274	      1.66151133	     -5.32108720
